<?xml version="1.0" standalone="no"?>
<!DOCTYPE svg PUBLIC "-//W3C//DTD SVG 20010904//EN"
 "http://www.w3.org/TR/2001/REC-SVG-20010904/DTD/svg10.dtd">
<svg version="1.0" xmlns="http://www.w3.org/2000/svg"
 width="200.000000pt" height="200.000000pt" viewBox="0 0 200.000000 200.000000"
 preserveAspectRatio="xMidYMid meet">

<g transform="translate(0.000000,200.000000) scale(0.100000,-0.100000)"
fill="#000000" stroke="none">
<path d="M900 1885 c-221 -44 -398 -189 -468 -385 -16 -45 -26 -100 -31 -177
-4 -62 -9 -114 -12 -115 -2 -2 -13 -8 -23 -14 -114 -63 -80 -357 55 -478 47
-43 48 -44 60 -132 9 -72 18 -99 44 -139 52 -79 96 -123 204 -205 18 -14 52
-40 74 -59 79 -64 118 -76 252 -76 134 0 174 12 251 76 23 19 59 48 80 64 77
60 157 141 193 195 32 47 39 68 49 144 11 86 13 90 52 123 111 95 166 318 108
433 -13 24 -32 49 -43 54 -11 6 -22 12 -24 14 -3 1 -8 53 -12 115 -4 63 -15
132 -24 157 -9 25 -18 53 -18 63 -1 10 -7 21 -12 25 -6 4 -25 30 -43 59 -56
87 -162 172 -277 220 -118 50 -298 65 -435 38z m269 -20 c72 -8 198 -55 265
-100 65 -43 149 -131 177 -186 11 -22 17 -39 13 -39 -3 0 2 -7 10 -16 38 -37
51 -121 51 -320 0 -124 -4 -199 -12 -215 -12 -25 -58 -281 -69 -384 -4 -33
-13 -72 -20 -86 -7 -15 -11 -29 -8 -31 16 -17 -188 -227 -221 -228 -5 0 -26
-17 -45 -36 -79 -80 -186 -112 -321 -95 -76 10 -129 35 -184 88 -22 21 -53 45
-69 53 -46 24 -181 162 -195 200 -7 19 -17 44 -21 55 -5 11 -14 58 -20 105
-17 131 -49 310 -65 364 -18 57 -20 297 -5 396 16 103 88 236 165 308 105 99
226 154 372 172 67 7 94 7 202 -5z m-761 -885 c33 -145 52 -245 49 -254 -6
-17 -66 55 -92 111 -32 65 -50 174 -41 235 4 29 18 60 34 80 l27 32 7 -80 c3
-43 11 -99 16 -124z m1372 103 c22 -104 -27 -270 -99 -337 -39 -37 -39 -30
-10 104 37 170 48 234 48 284 l1 49 25 -23 c15 -14 28 -43 35 -77z"/>
<path d="M767 1743 c-14 -13 -7 -33 11 -33 26 0 34 11 21 27 -13 14 -22 16
-32 6z"/>
<path d="M1313 1734 c-9 -23 11 -38 26 -20 13 16 7 36 -10 36 -5 0 -12 -7 -16
-16z"/>
<path d="M878 1336 c-4 -21 -2 -23 16 -16 25 9 28 33 5 38 -11 2 -18 -6 -21
-22z"/>
<path d="M1200 1340 c0 -15 5 -20 18 -18 9 2 17 10 17 18 0 8 -8 16 -17 18
-13 2 -18 -3 -18 -18z"/>
<path d="M547 1234 c-14 -15 -6 -34 14 -34 14 0 19 5 17 17 -3 18 -20 27 -31
17z"/>
<path d="M767 1234 c-14 -15 -6 -34 14 -34 14 0 19 5 17 17 -3 18 -20 27 -31
17z"/>
<path d="M1317 1234 c-14 -14 -7 -35 11 -32 9 2 17 10 17 17 0 16 -18 25 -28
15z"/>
<path d="M1525 1231 c-8 -15 3 -31 21 -31 9 0 14 7 12 17 -4 20 -24 28 -33 14z"/>
<path d="M1032 993 c2 -10 10 -18 18 -18 8 0 16 8 18 18 2 12 -3 17 -18 17
-15 0 -20 -5 -18 -17z"/>
<path d="M775 870 c-9 -15 3 -30 25 -30 13 0 17 5 13 20 -6 21 -28 27 -38 10z"/>
<path d="M1332 863 c2 -10 10 -18 18 -18 8 0 16 8 18 18 2 12 -3 17 -18 17
-15 0 -20 -5 -18 -17z"/>
<path d="M946 757 c-20 -15 -14 -37 9 -37 18 0 24 11 16 33 -6 15 -9 16 -25 4z"/>
<path d="M1137 749 c-6 -21 14 -36 33 -24 15 10 12 23 -9 34 -15 9 -20 7 -24
-10z"/>
<path d="M1036 662 c-2 -4 -1 -14 4 -22 7 -11 11 -11 24 -1 9 7 13 17 10 22
-7 11 -31 12 -38 1z"/>
<path d="M762 443 c2 -10 10 -18 18 -18 8 0 16 8 18 18 2 12 -3 17 -18 17 -15
0 -20 -5 -18 -17z"/>
<path d="M1307 446 c-6 -15 19 -30 34 -20 5 3 9 12 9 20 0 18 -36 18 -43 0z"/>
<path d="M1034 309 c-9 -15 11 -33 30 -26 9 4 13 13 10 22 -7 17 -30 20 -40 4z"/>
</g>
</svg>
